<?xml version="1.0" encoding="utf-8"?>
<!-- Generator: Adobe Illustrator 17.0.0, SVG Export Plug-In . SVG Version: 6.00 Build 0)  -->
<!DOCTYPE svg PUBLIC "-//W3C//DTD SVG 1.1//EN" "http://www.w3.org/Graphics/SVG/1.1/DTD/svg11.dtd">
<svg version="1.1" id="Layer_1" xmlns="http://www.w3.org/2000/svg" xmlns:xlink="http://www.w3.org/1999/xlink" x="0px" y="0px"
	 width="166.07px" height="156.814px" viewBox="0 0 166.07 156.814" enable-background="new 0 0 166.07 156.814"
	 xml:space="preserve">
<g>
	<path fill="#FFFFFF" d="M52.981,37.685c0,0,0.675-0.789,2.927-2.59c-3.378-5.517-10.021-4.504-10.021-4.504
		C52.193,34.307,52.981,37.685,52.981,37.685z"/>
	<path fill="#FFFFFF" d="M82.674,1C39.648,1,4.767,35.88,4.767,78.907c0,43.027,34.88,77.907,77.907,77.907
		s77.907-34.88,77.907-77.907C160.581,35.88,125.701,1,82.674,1z M103.676,40.529l5.091-5.091c3.012-3.012,7.447-3.46,9.906-1.002
		l7.717,7.717c2.459,2.459,2.01,6.894-1.002,9.906l-5.091,5.09c-0.122,0.122-0.248,0.238-0.374,0.352l-16.599-16.599
		C103.437,40.776,103.553,40.651,103.676,40.529z M41.092,29.82c4.373-3.524,11.618-1.788,16.183,3.878l19.916,28.293l-11.19,11.19
		l-24.56-26.724C36.876,40.793,36.72,33.344,41.092,29.82z M46.913,122.119l-10.921,2.714l2.714-10.922l2.714-10.921l8.207,8.207
		l8.207,8.207L46.913,122.119z M60.484,116.963l-16.621-16.621l56.723-56.723l2.374,2.374L49.146,99.808l2.375,2.374l53.814-53.814
		l11.872,11.873L60.484,116.963z M95.803,105.608l-9.071-9.871l8.342-8.342l8.444,11.997c4.565,5.664,4.543,4.582,0.17,8.105
		C99.315,111.021,100.369,111.274,95.803,105.608z M105.741,122.637c-15.122-6.256,9.28-24.272,14.698-9.993
		c2.937,9.048,4.06,11.219,13.073,11.29C142.525,124.004,120.862,128.893,105.741,122.637z"/>
</g>
</svg>
